<svg xmlns="http://www.w3.org/2000/svg" viewBox="0 0 512 512">
  <defs>
    <linearGradient id="grad1" x1="0%" y1="0%" x2="100%" y2="100%">
      <stop offset="0%" style="stop-color:#667eea;stop-opacity:1" />
      <stop offset="100%" style="stop-color:#764ba2;stop-opacity:1" />
    </linearGradient>
  </defs>
  
  <!-- Background circle -->
  <circle cx="256" cy="256" r="240" fill="url(#grad1)"/>
  
  <!-- Emotion emoji face -->
  <circle cx="256" cy="256" r="180" fill="#fff" opacity="0.9"/>
  
  <!-- Eyes -->
  <ellipse cx="190" cy="220" rx="25" ry="30" fill="#333"/>
  <ellipse cx="322" cy="220" rx="25" ry="30" fill="#333"/>
  
  <!-- Eye highlights -->
  <circle cx="200" cy="210" r="8" fill="#fff"/>
  <circle cx="332" cy="210" r="8" fill="#fff"/>
  
  <!-- Smile -->
  <path d="M 170 300 Q 256 380 342 300" stroke="#333" stroke-width="12" fill="none" stroke-linecap="round"/>
  
  <!-- Energy sparkles -->
  <g fill="#FFD700">
    <polygon points="80,80 90,100 110,100 95,115 100,135 80,125 60,135 65,115 50,100 70,100" transform="scale(0.6) translate(100,100)"/>
    <polygon points="400,80 410,100 430,100 415,115 420,135 400,125 380,135 385,115 370,100 390,100" transform="scale(0.6) translate(200,50)"/>
    <polygon points="80,400 90,420 110,420 95,435 100,455 80,445 60,455 65,435 50,420 70,420" transform="scale(0.6) translate(100,200)"/>
  </g>
</svg>
